# xmcd
#
# Track frame offsets:
#	150
#	11917
#	29627
#	48486
#	64647
#	75112
#	95766
#	113911
#	133206
#	148961
#	165675
#	184218
#	202762
#	218980
#	239137
#	269279
#
# Disc length: 4440 seconds
#
# Revision: 0
# Processed by: cddbd v1.5.2PL0 Copyright (c) Steve Scherf et al.
# Submitted via: EasyCDDAExtractor 12.0.1.1
#
DISCID=f2115610
DTITLE=DWELE - SUBJECT
DYEAR=2003
DGENRE=Blues
TTITLE0=POPPA YO
TTITLE1=TRUTH
TTITLE2=FIND A WAY
TTITLE3=POSSIBLE
TTITLE4=INTERLUDE (A.N.G.E.L)
TTITLE5=DAY AT A TIME
TTITLE6=SUBJECT
TTITLE7=SHO YA RIGHT
TTITLE8=MONEY DONT MEAN A THING
TTITLE9=HOLD ON
TTITLE10=KICK OUT OF YOU
TTITLE11=WITHOUT YOU
TTITLE12=WHOOMP
TTITLE13=LADY AT MAHOGANY
TTITLE14=LET YOUR HAIR DOWN
TTITLE15=DATAS
EXTD=
EXTT0=
EXTT1=
EXTT2=
EXTT3=
EXTT4=
EXTT5=
EXTT6=
EXTT7=
EXTT8=
EXTT9=
EXTT10=
EXTT11=
EXTT12=
EXTT13=
EXTT14=
EXTT15=
PLAYORDER=
